<svg width="534" height="674" viewBox="0 0 534 674" fill="none" xmlns="http://www.w3.org/2000/svg">
<path opacity="0.4" fill-rule="evenodd" clip-rule="evenodd" d="M478 141C478 145 475.2 148 471.199 148C467.199 148 464 145 464 141C464 137 466.799 134 470.801 134C474.401 134 477.6 137.5 478 141Z" fill="#7570FF"/>
<path opacity="0.4" fill-rule="evenodd" clip-rule="evenodd" d="M173 545C173 549 170.2 552 166.199 552C162.199 552 159 549 159 545C159 541 161.799 538 165.801 538C169.401 538 172.6 541.5 173 545Z" fill="#7570FF"/>
<path fill-rule="evenodd" clip-rule="evenodd" d="M299 213C299 215.857 296.715 218 293.858 218C291 218 289 215.857 289 213C289 210.143 291.285 208 294.144 208C296.715 208 299 210.5 299 213Z" fill="#7570FF"/>
<path opacity="0.6" fill-rule="evenodd" clip-rule="evenodd" d="M10 518C10 520.857 7.71465 523 4.85804 523C1.9996 523 0 520.857 0 518C0 515.143 2.28531 513 5.14376 513C7.7147 513 10 515.5 10 518Z" fill="#7570FF"/>
<path opacity="0.8" fill-rule="evenodd" clip-rule="evenodd" d="M534 523C534 525.857 531.715 528 528.858 528C526 528 524 525.857 524 523C524 520.143 526.285 518 529.144 518C531.715 518 534 520.5 534 523Z" fill="#7570FF"/>
<path fill-rule="evenodd" clip-rule="evenodd" d="M194.871 666C194.871 670.571 191.137 674 186.935 674C182.734 674 179 670.571 179 666C179 661.428 182.734 658 186.935 658C191.137 658 194.404 661.428 194.871 666Z" fill="#7570FF"/>
<circle cx="247" cy="28" r="27.5" fill="#7570FF" fill-opacity="0.4" stroke="#7065F0"/>
<path d="M252.4 27.3001C252.4 30.2825 249.982 32.7002 247 32.7002C244.018 32.7002 241.6 30.2825 241.6 27.3001C241.6 24.3178 244.018 21.9001 247 21.9001C249.982 21.9001 252.4 24.3178 252.4 27.3001Z" fill="white" stroke="#7065F0" stroke-width="6"/>
<path d="M248 48L243.725 84.7687C243.299 88.4275 245.427 91.9039 248.879 93.1896L458.925 171.424C462.234 172.656 464.344 175.913 464.116 179.437L457.665 279.213C457.328 284.426 452.167 287.923 447.2 286.303L345.274 253.047C341.631 251.858 337.657 253.42 335.797 256.77L281 355.5" stroke="url(#paint0_linear_0_1)" stroke-width="6"/>
<circle cx="280" cy="380" r="8" fill="#CECBF6"/>
<circle cx="280" cy="331" r="28" fill="#7065F0"/>
<path d="M287 327.71L281.667 323.562C281.199 323.198 280.623 323 280.03 323C279.437 323 278.861 323.198 278.393 323.562L273.059 327.71C272.738 327.959 272.479 328.279 272.301 328.643C272.122 329.008 272.03 329.409 272.03 329.815V337.015C272.03 337.545 272.241 338.054 272.616 338.429C272.991 338.804 273.5 339.015 274.03 339.015H286.03C286.56 339.015 287.069 338.804 287.444 338.429C287.819 338.054 288.03 337.545 288.03 337.015V329.815C288.03 328.992 287.65 328.215 287 327.71Z" fill="white" stroke="white" stroke-width="3" stroke-linecap="round" stroke-linejoin="round"/>
<path d="M284 334C281.79 335.333 278.208 335.333 276 334" stroke="#7065F0" stroke-width="3" stroke-linecap="round" stroke-linejoin="round"/>
<path d="M281.732 364C280.962 365.333 279.038 365.333 278.268 364L274.804 358C274.034 356.667 274.996 355 276.536 355L283.464 355C285.004 355 285.966 356.667 285.196 358L281.732 364Z" fill="#7065F0"/>
<defs>
<linearGradient id="paint0_linear_0_1" x1="289.5" y1="378.5" x2="245.5" y2="48" gradientUnits="userSpaceOnUse">
<stop stop-color="#100A55"/>
<stop offset="1" stop-color="#100A55" stop-opacity="0"/>
</linearGradient>
</defs>
</svg>
