<svg width="48" height="48" viewBox="0 0 48 48" fill="none" xmlns="http://www.w3.org/2000/svg">
<circle cx="24" cy="24" r="23.25" fill="white" stroke="#E8E6F9" stroke-width="1.5"/>
<path d="M16.318 18.318C15.9001 18.7358 15.5687 19.2319 15.3425 19.7779C15.1164 20.3239 15 20.909 15 21.5C15 22.0909 15.1164 22.6761 15.3425 23.2221C15.5687 23.768 15.9001 24.2641 16.318 24.682L24 32.364L31.682 24.682C32.5259 23.8381 33 22.6935 33 21.5C33 20.3065 32.5259 19.1619 31.682 18.318C30.8381 17.4741 29.6935 17 28.5 17C27.3065 17 26.1619 17.4741 25.318 18.318L24 19.636L22.682 18.318C22.2641 17.9001 21.7681 17.5686 21.2221 17.3425C20.6761 17.1163 20.091 16.9999 19.5 16.9999C18.909 16.9999 18.3239 17.1163 17.7779 17.3425C17.2319 17.5686 16.7359 17.9001 16.318 18.318V18.318Z" stroke="#7065F0" stroke-width="2" stroke-linecap="round" stroke-linejoin="round"/>
</svg>
