<svg width="64" height="64" viewBox="0 0 64 64" fill="none" xmlns="http://www.w3.org/2000/svg">
<circle cx="32" cy="32" r="31.5" stroke="#E0DEF7"/>
<circle cx="32" cy="32" r="28" fill="#E0DEF7"/>
<path d="M43.6167 26.5094L34.7283 19.6024C33.9483 18.9962 32.9882 18.667 32 18.667C31.0117 18.667 30.0517 18.9962 29.2717 19.6024L20.3817 26.5094C19.8474 26.9245 19.4151 27.456 19.1179 28.0635C18.8207 28.671 18.6663 29.3383 18.6667 30.0145V42.0034C18.6667 42.8866 19.0178 43.7337 19.643 44.3582C20.2681 44.9828 21.1159 45.3337 22 45.3337H42C42.884 45.3337 43.7319 44.9828 44.357 44.3582C44.9821 43.7337 45.3333 42.8866 45.3333 42.0034V30.0145C45.3333 28.6441 44.7 27.3503 43.6167 26.5094Z" fill="white" stroke="white" stroke-width="2" stroke-linecap="round" stroke-linejoin="round"/>
<path d="M27 37L37 27" stroke="#7065F0" stroke-width="2" stroke-linecap="round" stroke-linejoin="round"/>
<path d="M27.8333 28.6667C28.2936 28.6667 28.6667 28.2936 28.6667 27.8333C28.6667 27.3731 28.2936 27 27.8333 27C27.3731 27 27 27.3731 27 27.8333C27 28.2936 27.3731 28.6667 27.8333 28.6667Z" fill="#7065F0" stroke="#7065F0" stroke-width="2" stroke-linecap="round" stroke-linejoin="round"/>
<path d="M36.1663 36.9997C36.6266 36.9997 36.9997 36.6266 36.9997 36.1663C36.9997 35.7061 36.6266 35.333 36.1663 35.333C35.7061 35.333 35.333 35.7061 35.333 36.1663C35.333 36.6266 35.7061 36.9997 36.1663 36.9997Z" fill="#7065F0" stroke="#7065F0" stroke-width="2" stroke-linecap="round" stroke-linejoin="round"/>
<rect x="40" y="40" width="24" height="24" rx="12" fill="#7065F0"/>
<path d="M45.6 52.8C45.6 52.5878 45.6843 52.3843 45.8343 52.2343C45.9843 52.0843 46.1878 52 46.4 52H48C48.2122 52 48.4157 52.0843 48.5657 52.2343C48.7157 52.3843 48.8 52.5878 48.8 52.8V56.8C48.8 57.0122 48.7157 57.2157 48.5657 57.3657C48.4157 57.5157 48.2122 57.6 48 57.6H46.4C46.1878 57.6 45.9843 57.5157 45.8343 57.3657C45.6843 57.2157 45.6 57.0122 45.6 56.8V52.8ZM50.4 49.6C50.4 49.3878 50.4843 49.1843 50.6343 49.0343C50.7843 48.8843 50.9878 48.8 51.2 48.8H52.8C53.0122 48.8 53.2157 48.8843 53.3657 49.0343C53.5157 49.1843 53.6 49.3878 53.6 49.6V56.8C53.6 57.0122 53.5157 57.2157 53.3657 57.3657C53.2157 57.5157 53.0122 57.6 52.8 57.6H51.2C50.9878 57.6 50.7843 57.5157 50.6343 57.3657C50.4843 57.2157 50.4 57.0122 50.4 56.8V49.6ZM55.2 47.2C55.2 46.9878 55.2843 46.7843 55.4343 46.6343C55.5843 46.4843 55.7878 46.4 56 46.4H57.6C57.8122 46.4 58.0157 46.4843 58.1657 46.6343C58.3157 46.7843 58.4 46.9878 58.4 47.2V56.8C58.4 57.0122 58.3157 57.2157 58.1657 57.3657C58.0157 57.5157 57.8122 57.6 57.6 57.6H56C55.7878 57.6 55.5843 57.5157 55.4343 57.3657C55.2843 57.2157 55.2 57.0122 55.2 56.8V47.2Z" fill="white"/>
</svg>
